# xmcd
#
# Track frame offsets:
#	150
#	18218
#	29909
#	48750
#	60567
#	78949
#	99653
#	112718
#	131011
#	154271
#	171358
#	185529
#	200853
#	215568
#
# Disc length: 3095 seconds
#
# Revision: 1
# Processed by: cddbd v1.5.2PL0 Copyright (c) Steve Scherf et al.
# Submitted via: audiograbber 1.82.01
#
DISCID=c10c150e
DTITLE=Various Artist - Country Kersfees - CD1
DYEAR=2007
DGENRE=Country
TTITLE0=Alan Ladd - The Gift
TTITLE1=Juanita du Plessis - When a Child is Born
TTITLE2=Ronell Erasmus - Stille Nag
TTITLE3=Bobby van Jaarsveld - Little Drummer Boy
TTITLE4=Freda Francis - Wat 'n Vriend
TTITLE5=Piet Smit - Hierdie Koning
TTITLE6=Theuns Jordaan - Sonneblom uit Bethlehem
TTITLE7=Reana Nel - Firs Noel 
TTITLE8=Jan de Wet - Hierdie Kind
TTITLE9=Rudi Claase - Tennessee Chrismas
TTITLE10=Gerrie Pretorius - Blue Christmas
TTITLE11=Rina Hugo - Die Heiland is Gebore
TTITLE12=Mathys Roets - Somerkersfees
TTITLE13=Jeffrey de Bruyn - Prince of Peace
EXTD=
EXTT0=
EXTT1=
EXTT2=
EXTT3=
EXTT4=
EXTT5=
EXTT6=
EXTT7=
EXTT8=
EXTT9=
EXTT10=
EXTT11=
EXTT12=
EXTT13=
PLAYORDER=
